<svg xmlns="http://www.w3.org/2000/svg" xmlns:xlink="http://www.w3.org/1999/xlink" width="31.956" height="41.04" viewBox="0 0 31.956 41.04">
  <defs>
    <linearGradient id="linear-gradient" x1="0.5" x2="0.5" y2="1" gradientUnits="objectBoundingBox">
      <stop offset="0" stop-color="#c9107a"/>
      <stop offset="1" stop-color="#9a0162"/>
    </linearGradient>
  </defs>
  <g id="Group_873" data-name="Group 873" transform="translate(315.179 -104.963)">
    <path id="Path_266" data-name="Path 266" d="M-289.047,126.329l-5.291-1.161a8.5,8.5,0,0,0,3.6-6.943v-4.77a8.486,8.486,0,0,0-8.461-8.492,8.486,8.486,0,0,0-8.461,8.492v4.77a8.495,8.495,0,0,0,3.59,6.937l-5.288,1.164a7.473,7.473,0,0,0-5.819,7.261V139.4a1.322,1.322,0,0,0,1.32,1.324h29.317a1.322,1.322,0,0,0,1.319-1.324v-5.812A7.472,7.472,0,0,0-289.047,126.329Zm-15.976-12.873a5.839,5.839,0,0,1,5.822-5.843,5.838,5.838,0,0,1,5.791,5.236l-2.758-1.626a1.316,1.316,0,0,0-1.68.291,6.5,6.5,0,0,1-5,2.343h-2.172v-.4Zm0,3.05h2.172a9.123,9.123,0,0,0,6.248-2.467l3.224,1.9v2.286a5.839,5.839,0,0,1-5.822,5.843,5.839,5.839,0,0,1-5.822-5.843Zm7.6,10.022-1.8,4.235-1.8-4.244a8.42,8.42,0,0,0,1.818.2A8.431,8.431,0,0,0-297.424,126.527Zm11.562,11.551H-312.54v-4.491a4.81,4.81,0,0,1,3.746-4.674l5.417-1.193,2.943,6.942a1.32,1.32,0,0,0,1.214.806,1.32,1.32,0,0,0,1.214-.806l2.943-6.943,5.451,1.2a4.809,4.809,0,0,1,3.749,4.674v4.487Z" transform="translate(0)" fill="url(#linear-gradient)"/>
    <g id="Group_872" data-name="Group 872" transform="translate(-313.521 143.428)">
      <path id="Path_267" data-name="Path 267" d="M-301.017,395.982a1.3,1.3,0,0,0-.91.377,1.3,1.3,0,0,0-.377.91,1.3,1.3,0,0,0,.377.91,1.3,1.3,0,0,0,.91.377,1.3,1.3,0,0,0,.91-.377,1.3,1.3,0,0,0,.377-.91,1.3,1.3,0,0,0-.377-.91A1.3,1.3,0,0,0-301.017,395.982Z" transform="translate(302.304 -395.982)" fill="url(#linear-gradient)"/>
      <path id="Path_268" data-name="Path 268" d="M-240.145,395.982h-20.829a1.31,1.31,0,0,0-1.331,1.287,1.31,1.31,0,0,0,1.331,1.287h20.829a1.31,1.31,0,0,0,1.332-1.287A1.31,1.31,0,0,0-240.145,395.982Z" transform="translate(267.455 -395.982)" fill="url(#linear-gradient)"/>
    </g>
  </g>
</svg>
