<svg xmlns="http://www.w3.org/2000/svg" xmlns:xlink="http://www.w3.org/1999/xlink" width="40" height="40" viewBox="0 0 40 40">
  <defs>
    <linearGradient id="linear-gradient" x1="0.5" x2="0.5" y2="1" gradientUnits="objectBoundingBox">
      <stop offset="0" stop-color="#c9107a"/>
      <stop offset="1" stop-color="#9a0162"/>
    </linearGradient>
  </defs>
  <g id="Group_870" data-name="Group 870" transform="translate(809 25)">
    <path id="Path_260" data-name="Path 260" d="M-502.287,235a.713.713,0,0,0-.713.713.713.713,0,0,0,.713.713.713.713,0,0,0,.713-.713A.713.713,0,0,0-502.287,235Z" transform="translate(-282.008 -239.615)" fill="url(#linear-gradient)"/>
    <path id="Path_261" data-name="Path 261" d="M-801.018,3.889l-7.812,9.844a.781.781,0,0,0-.092.825.781.781,0,0,0,.7.442h38.438a.781.781,0,0,0,.7-.442.78.78,0,0,0-.092-.825l-7.812-9.844a.781.781,0,0,0-.612-.3h-6.844l5.843-9.164A12.446,12.446,0,0,0-776.5-12.5,12.514,12.514,0,0,0-789-25a12.514,12.514,0,0,0-12.5,12.5A12.447,12.447,0,0,0-799.4-5.57l5.843,9.164h-6.844A.781.781,0,0,0-801.018,3.889Zm-2.917,6.189h4.724l-2.666,3.359H-806.6Zm11.369-4.922,2.142,3.359h-5.552l2.666-3.359Zm7.133,0h.744l2.666,3.359h-5.552Zm4.65,4.922,2.666,3.359h-21.765l2.666-3.359Zm4.661,3.359-2.666-3.359h4.724l2.666,3.359Zm.818-4.922h-4.724l-2.666-3.359h4.724ZM-798.1-6.431a10.89,10.89,0,0,1-1.837-6.069A10.95,10.95,0,0,1-789-23.437,10.95,10.95,0,0,1-778.062-12.5,10.892,10.892,0,0,1-779.9-6.431l-.009.014L-789,7.844l-9.092-14.261Zm2.8,11.587-2.666,3.359h-4.724l2.666-3.359Z" fill="url(#linear-gradient)"/>
    <path id="Path_262" data-name="Path 262" d="M-645.871,49.258a7.13,7.13,0,0,0,7.129-7.129A7.137,7.137,0,0,0-645.871,35,7.137,7.137,0,0,0-653,42.129,7.13,7.13,0,0,0-645.871,49.258Zm0-12.832a5.71,5.71,0,0,1,5.7,5.7,5.7,5.7,0,0,1-5.7,5.7,5.7,5.7,0,0,1-5.7-5.7A5.71,5.71,0,0,1-645.871,36.426Z" transform="translate(-143.129 -55.723)" fill="url(#linear-gradient)"/>
    <path id="Path_263" data-name="Path 263" d="M-559.288,267.79a.713.713,0,0,0-.979.243L-562.9,272.4a.713.713,0,0,0,.243.979.713.713,0,0,0,.979-.243l2.635-4.372A.713.713,0,0,0-559.288,267.79Z" transform="translate(-226.567 -269.444)" fill="url(#linear-gradient)"/>
  </g>
</svg>
