<svg xmlns="http://www.w3.org/2000/svg" xmlns:xlink="http://www.w3.org/1999/xlink" width="42.091" height="36" viewBox="0 0 42.091 36">
  <defs>
    <linearGradient id="linear-gradient" x1="0.5" x2="0.5" y2="1" gradientUnits="objectBoundingBox">
      <stop offset="0" stop-color="#c9107a"/>
      <stop offset="1" stop-color="#9a0162"/>
    </linearGradient>
  </defs>
  <g id="Group_668" data-name="Group 668" transform="translate(106.506 -5.223)">
    <path id="Path_200" data-name="Path 200" d="M-64.508,19.909a2.383,2.383,0,0,1-1.552,1.357c-3.25,1.075-4.25,3.344-3.663,6.553.567,3.1-.6,5.053-3.528,6.5a116.3,116.3,0,0,0-10.572,6.345,2.679,2.679,0,0,1-3.249.022q-6.242-3.887-12.579-7.622c-1.166-.683-1.809-1.454-1.582-2.826.039-.231-.026-.479.01-.711.648-4.1-.131-7.439-4.646-8.836-.243-.075-.4-.426-.638-.69.992-1.414,2.716-1.661,3.849-2.772-1.016-1.323-2.853-1.447-3.771-2.731.029-.88.736-1.026,1.258-1.327,4.109-2.372,8.269-4.66,12.318-7.13,1.725-1.052,3.237-1.157,4.775.095a3.56,3.56,0,0,0,5.033-.017c1.55-1.263,3.072-1.094,4.785-.066,4.524,2.717,9.139,5.281,13.843,7.978-.923,1.732-2.853,1.889-3.964,3.117C-67.278,18.376-65.532,18.572-64.508,19.909Zm-8.56-2.754c-4.171-2.371-8.07-4.59-11.972-6.8a1.068,1.068,0,0,0-1.123.037c-3.819,2.2-7.64,4.393-11.787,6.776,4.139,2.36,7.912,4.489,11.656,6.667a1.52,1.52,0,0,0,1.743-.044C-80.86,21.636-77.153,19.51-73.068,17.155ZM-84.3,27.188v11.22l12-7.263a1.238,1.238,0,0,0,.586-1.2c-.019-1.689-.007-3.379-.007-5.385-1.869,1.064-3.431,1.822-4.85,2.789C-79.04,29.034-81.462,30.035-84.3,27.188Zm-2.214-.055c-3.054,3.148-5.549,1.664-8.127.045-1.405-.881-2.777-1.938-4.221-2.217-1.563,4.367.2,7.042,4.151,8.573a4.349,4.349,0,0,1,.61.365l7.587,4.523Zm3.189-1.585c1.416.54,2.094,1.939,3.479,1.158,3.813-2.151,7.6-4.353,11.688-6.705-1.494-.744-2.278-1.978-3.9-.983C-75.632,21.2-79.3,23.229-83.323,25.548Zm-19.563-11.2c1.358.616,2.171,1.89,3.5,1.139,3.836-2.161,7.634-4.391,11.711-6.747-1.414-.5-2.212-1.859-3.54-1.114C-95.053,9.776-98.85,12.012-102.886,14.344Zm34.517-.133c-3.45-1.967-6.924-3.787-10.218-5.889-1.78-1.136-3.07-1.01-4.556.6,3.429,1.962,6.833,3.763,10.072,5.824C-71.323,15.86-69.959,15.882-68.369,14.211Zm-34.24,5.91c3.54,2.031,7.019,3.892,10.347,5.99,1.762,1.111,3,.784,4.368-.718-3.461-1.988-6.923-3.834-10.224-5.933C-99.837,18.367-101.114,18.5-102.609,20.121Z" transform="translate(0 0)" fill="url(#linear-gradient)"/>
  </g>
</svg>
